<mxfile host="app.diagrams.net" modified="2023-09-10T08:28:46.325Z" agent="Mozilla/5.0 (Windows NT 10.0; Win64; x64; rv:109.0) Gecko/20100101 Firefox/117.0" etag="Ez2AAX40q7Qej55b2NJj" version="21.7.2" type="github">
  <diagram name="第 1 页" id="9rBByLX5gH0p-5J5IQSQ">
    <mxGraphModel dx="1297" dy="1583" grid="1" gridSize="10" guides="1" tooltips="1" connect="1" arrows="1" fold="1" page="1" pageScale="1" pageWidth="827" pageHeight="1169" math="0" shadow="0">
      <root>
        <mxCell id="0" />
        <mxCell id="1" parent="0" />
        <mxCell id="hm_4viDAhXJPEV2g--su-1" value="" style="rounded=0;whiteSpace=wrap;html=1;fillColor=#f8cecc;strokeColor=#b85450;" vertex="1" parent="1">
          <mxGeometry x="-110" y="-310" width="440" height="320" as="geometry" />
        </mxCell>
        <mxCell id="hm_4viDAhXJPEV2g--su-2" value="&lt;div&gt;线程状态&lt;/div&gt;" style="rounded=0;whiteSpace=wrap;html=1;" vertex="1" parent="1">
          <mxGeometry x="-110" y="-360" width="440" height="50" as="geometry" />
        </mxCell>
        <mxCell id="hm_4viDAhXJPEV2g--su-3" value="NEW" style="rounded=0;whiteSpace=wrap;html=1;" vertex="1" parent="1">
          <mxGeometry x="-70" y="-280" width="120" height="60" as="geometry" />
        </mxCell>
        <mxCell id="hm_4viDAhXJPEV2g--su-4" value="WAITING" style="rounded=0;whiteSpace=wrap;html=1;" vertex="1" parent="1">
          <mxGeometry x="160" y="-280" width="120" height="60" as="geometry" />
        </mxCell>
        <mxCell id="hm_4viDAhXJPEV2g--su-5" value="RUNNABLE" style="rounded=0;whiteSpace=wrap;html=1;" vertex="1" parent="1">
          <mxGeometry x="-70" y="-200" width="120" height="60" as="geometry" />
        </mxCell>
        <mxCell id="hm_4viDAhXJPEV2g--su-6" value="TIMNE_WAITING" style="rounded=0;whiteSpace=wrap;html=1;" vertex="1" parent="1">
          <mxGeometry x="160" y="-200" width="120" height="60" as="geometry" />
        </mxCell>
        <mxCell id="hm_4viDAhXJPEV2g--su-7" value="BLOCKED" style="rounded=0;whiteSpace=wrap;html=1;" vertex="1" parent="1">
          <mxGeometry x="-70" y="-120" width="120" height="60" as="geometry" />
        </mxCell>
        <mxCell id="hm_4viDAhXJPEV2g--su-8" value="terminated" style="rounded=0;whiteSpace=wrap;html=1;" vertex="1" parent="1">
          <mxGeometry x="160" y="-120" width="120" height="60" as="geometry" />
        </mxCell>
      </root>
    </mxGraphModel>
  </diagram>
</mxfile>
